<svg width="1920" height="960" viewBox="0 0 1920 960" fill="none" xmlns="http://www.w3.org/2000/svg">
  <defs>
    <linearGradient id="bg" x1="0" y1="0" x2="0" y2="960">
      <stop offset="0" stop-color="#091224"/>
      <stop offset="1" stop-color="#010307"/>
    </linearGradient>
    <radialGradient id="glow" cx="0" cy="0" r="1" gradientUnits="userSpaceOnUse" gradientTransform="translate(1420 230) rotate(136.5) scale(610 420)">
      <stop stop-color="#40639C" stop-opacity="0.35"/>
      <stop offset="1" stop-color="#40639C" stop-opacity="0"/>
    </radialGradient>
    <linearGradient id="horizon" x1="960" y1="500" x2="960" y2="930">
      <stop stop-color="#C07A17"/>
      <stop offset="1" stop-color="#5E2F0A"/>
    </linearGradient>
  </defs>
  <rect width="1920" height="960" fill="url(#bg)"/>
  <rect width="1920" height="960" fill="url(#glow)"/>
  <g opacity="0.45" stroke="#C9D8F2" stroke-width="2">
    <ellipse cx="960" cy="470" rx="820" ry="260"/>
    <ellipse cx="960" cy="470" rx="760" ry="220"/>
    <ellipse cx="960" cy="470" rx="700" ry="188"/>
  </g>
  <path d="M0 630C190 584 360 560 550 560C760 560 952 604 1160 612C1400 621 1640 592 1920 532V960H0V630Z" fill="url(#horizon)"/>
  <path d="M0 692C208 646 364 634 546 644C734 654 948 711 1150 715C1404 721 1648 676 1920 614V960H0V692Z" fill="#DF8F22" fill-opacity="0.85"/>
  <g fill="#FBEAD0" opacity="0.85">
    <circle cx="220" cy="145" r="2.2"/>
    <circle cx="364" cy="210" r="1.9"/>
    <circle cx="580" cy="96" r="1.6"/>
    <circle cx="1012" cy="152" r="1.8"/>
    <circle cx="1266" cy="114" r="2.1"/>
    <circle cx="1636" cy="176" r="1.7"/>
  </g>
</svg>
