<svg width="1656" height="1080" viewBox="0 0 1656 1080" fill="none" xmlns="http://www.w3.org/2000/svg">
<path fill-rule="evenodd" clip-rule="evenodd" d="M683.2 1013.35C610.42 1057.78 523.852 1080 423.496 1080C352.976 1080 289.462 1069.12 232.956 1047.36C176.449 1025.14 128.984 994.307 90.5595 954.861C52.135 914.962 24.7859 868.715 8.51199 816.121C-33.0731 638.433 57.0254 317.459 748.162 450.821C745.035 402.647 732.874 357.109 711.679 314.206C686.816 263.879 651.33 223.073 605.221 191.788C558.659 160.05 503.509 144.181 439.77 144.181C381.907 144.181 331.729 157.557 289.236 184.307C246.292 211.058 213.292 247.557 190.237 293.803L30.8886 276.121C56.6556 209.471 91.2376 155.97 134.635 115.617C178.032 74.811 226.175 45.34 279.065 27.2039C331.955 9.06798 385.524 0 439.77 0C533.797 0 616.07 23.1234 686.59 69.3702C727.613 96.1806 763.367 129.207 793.852 168.451C815.438 196.237 834.382 227.14 850.685 261.159C889.562 342.771 909 437.078 909 544.081C909 650.559 889.752 744.018 851.255 824.456C851.065 824.852 850.876 825.247 850.685 825.642C811.357 905.894 755.528 968.463 683.2 1013.35ZM593.694 893.652C642.515 865.088 680.714 823.602 708.289 769.194C732.936 719.341 746.384 659.566 748.634 589.87C220.751 528.433 131.13 621.34 158.579 773.574C166.079 806.436 187.342 883.478 286.513 921.041C320.417 932.83 381.455 938.278 423.496 938.278C488.139 938.278 544.872 921.763 593.694 893.652Z" fill="#f0ece4"/>
<path fill-rule="evenodd" clip-rule="evenodd" d="M972.801 66.6499C1045.58 22.2167 1132.15 1.98612e-05 1232.5 1.98612e-05C1303.03 1.98612e-05 1366.54 10.8817 1423.04 32.6449C1479.55 54.8615 1527.02 85.6928 1565.44 125.139C1603.87 165.038 1631.22 211.285 1647.49 263.879C1689.07 441.567 1598.98 762.541 907.839 629.179C910.966 677.353 923.127 722.891 944.322 765.794C969.185 816.121 1004.67 856.927 1050.78 888.212C1097.34 919.95 1152.49 935.819 1216.23 935.819C1274.09 935.819 1324.27 922.443 1366.76 895.693C1409.71 868.942 1442.71 832.443 1465.76 786.197L1625.11 803.879C1599.35 870.529 1564.76 924.03 1521.37 964.383C1477.97 1005.19 1429.83 1034.66 1376.94 1052.8C1324.05 1070.93 1270.48 1080 1216.23 1080C1122.2 1080 1039.93 1056.88 969.411 1010.63C928.388 983.819 892.634 950.793 862.149 911.549C840.563 883.763 821.619 852.86 805.316 818.841C766.439 737.229 747.001 642.922 747.001 535.919C747.001 429.441 766.249 335.982 804.746 255.544C804.936 255.148 805.125 254.753 805.316 254.358C844.644 174.106 900.473 111.537 972.801 66.6499ZM1062.31 186.348C1013.49 214.912 975.287 256.398 947.712 310.806C923.065 360.659 909.617 420.434 907.367 490.13C1435.25 551.567 1524.87 458.66 1497.42 306.426C1489.92 273.564 1468.66 196.522 1369.49 158.959C1335.58 147.17 1274.55 141.722 1232.5 141.722C1167.86 141.722 1111.13 158.237 1062.31 186.348Z" fill="#f0ece4"/>
</svg>
